<?xml version="1.0" encoding="UTF-8" standalone="no"?>
<!-- Created with Inkscape (http://www.inkscape.org/) -->

<svg
   width="61.169918mm"
   height="31.367538mm"
   viewBox="0 0 61.169918 31.367538"
   version="1.1"
   id="svg309"
   xmlns="http://www.w3.org/2000/svg"
   xmlns:svg="http://www.w3.org/2000/svg">
  <defs
     id="defs306" />
  <g
     id="layer1"
     transform="translate(-83.043903,-98.965716)">
    <rect
       height="19.843748"
       id="rect6264"
       rx="6.614583"
       ry="6.614583"
       style="color:#000000;display:inline;overflow:visible;visibility:visible;fill:none;fill-opacity:1;fill-rule:evenodd;stroke:#000000;stroke-width:0.85;stroke-linecap:butt;stroke-linejoin:miter;stroke-miterlimit:4;stroke-dasharray:none;stroke-dashoffset:0;stroke-opacity:1;marker:none;marker-start:none;marker-mid:none;marker-end:none"
       width="19.843748"
       x="103.70699"
       y="110.06451" />
    <circle
       id="circle6266"
       style="color:#000000;display:inline;overflow:visible;visibility:visible;fill:#000000;fill-opacity:1;fill-rule:evenodd;stroke:#000000;stroke-width:0.396875;stroke-linecap:butt;stroke-linejoin:miter;stroke-miterlimit:4;stroke-dasharray:none;stroke-dashoffset:0;stroke-opacity:1;marker:none;marker-start:none;marker-mid:none;marker-end:none"
       cx="108.80022"
       cy="115.15774"
       r="1.6536458" />
    <circle
       id="circle6268"
       style="color:#000000;display:inline;overflow:visible;visibility:visible;fill:#000000;fill-opacity:1;fill-rule:evenodd;stroke:#000000;stroke-width:0.396875;stroke-linecap:butt;stroke-linejoin:miter;stroke-miterlimit:4;stroke-dasharray:none;stroke-dashoffset:0;stroke-opacity:1;marker:none;marker-start:none;marker-mid:none;marker-end:none"
       cx="118.32521"
       cy="124.68273"
       r="1.6536458" />
    <circle
       id="circle6270"
       style="color:#000000;display:inline;overflow:visible;visibility:visible;fill:#000000;fill-opacity:1;fill-rule:evenodd;stroke:#000000;stroke-width:0.396875;stroke-linecap:butt;stroke-linejoin:miter;stroke-miterlimit:4;stroke-dasharray:none;stroke-dashoffset:0;stroke-opacity:1;marker:none;marker-start:none;marker-mid:none;marker-end:none"
       cx="113.5627"
       cy="119.92023"
       r="1.6536458" />
    <g
       id="g6278"
       transform="translate(-173.68031,62.145526)">
      <path
         id="path6274"
         style="color:#000000;font-style:normal;font-variant:normal;font-weight:normal;font-stretch:normal;font-size:medium;line-height:normal;font-family:'Andale Mono';-inkscape-font-specification:'Andale Mono';text-indent:0;text-align:start;text-decoration:none;text-decoration-line:none;letter-spacing:normal;word-spacing:normal;text-transform:none;writing-mode:lr-tb;direction:ltr;text-anchor:start;display:inline;overflow:visible;visibility:visible;fill:#000000;fill-opacity:1;stroke:none;stroke-width:0.782722;marker:none;enable-background:accumulate"
         d="m 317.44045,36.82019 c -6.85234,1.045294 -13.62707,2.619351 -20.54344,3.22254 -2.83276,0.300024 -5.93455,0.464135 -8.25685,2.312003 -1.17605,0.970815 -1.88376,2.908382 -0.77259,4.186825 1.04463,1.187519 2.62517,1.491247 4.1021,1.898076 V 47.62263 c -1.32524,-0.366287 -2.90099,-0.653913 -3.70985,-1.88154 -0.59132,-1.436211 0.64765,-2.874258 1.88463,-3.45922 2.90914,-1.41844 6.23006,-1.287693 9.36532,-1.733743 5.88386,-0.68769 11.68289,-1.926503 17.52192,-2.901633 -0.84931,2.05137 -3.20407,2.73504 -5.20123,3.076816 -2.80932,0.605856 -5.67433,0.964708 -8.54831,1.030428 -0.25083,1.45507 2.06216,0.480523 2.93004,0.622702 1.96975,-0.174837 3.92182,-0.506196 5.8591,-0.897105 -2.57789,1.917552 -5.90807,2.098919 -8.95501,2.687691 -0.93679,0.296463 -2.36138,-0.02897 -3.00138,0.514699 0.43661,1.191969 2.21742,0.132527 3.21323,0.25218 1.41174,-0.201091 2.80638,-0.503814 4.2132,-0.734322 -1.15306,1.783302 -3.26996,2.605148 -5.22759,3.168282 -1.05793,0.262877 -2.14881,0.389141 -3.23858,0.388607 -0.37266,1.443545 1.9956,0.555458 2.80295,0.508495 2.64157,-0.512676 5.27971,-1.82548 6.77476,-4.140833 1.27619,-0.967629 3.1864,-0.854972 4.09435,-2.367814 1.30259,-1.03845 3.17177,-1.169805 4.23074,-2.556431 0.39449,-0.490064 1.54852,-2.068004 0.46249,-2.379699 z" />
      <path
         id="path6276"
         style="color:#000000;font-style:normal;font-variant:normal;font-weight:normal;font-stretch:normal;font-size:medium;line-height:normal;font-family:'Andale Mono';-inkscape-font-specification:'Andale Mono';text-indent:0;text-align:start;text-decoration:none;text-decoration-line:none;letter-spacing:normal;word-spacing:normal;text-transform:none;writing-mode:lr-tb;direction:ltr;text-anchor:start;display:inline;overflow:visible;visibility:visible;fill:#000000;fill-opacity:1;stroke:none;stroke-width:0.782722;marker:none;enable-background:accumulate"
         d="m 257.1779,36.862474 c 6.85233,1.0453 13.62707,2.61935 20.54344,3.22254 2.83276,0.30003 5.93455,0.46414 8.25685,2.312 1.17605,0.97082 1.88375,2.90839 0.77258,4.18683 -1.04463,1.18752 -2.62517,1.49125 -4.1021,1.89808 v -0.81701 c 1.32525,-0.36629 2.901,-0.65391 3.70986,-1.88154 0.59131,-1.43621 -0.64765,-2.87426 -1.88463,-3.45922 -2.90915,-1.41844 -6.23006,-1.28769 -9.36532,-1.73374 -5.88386,-0.68769 -11.68289,-1.9265 -17.52193,-2.90163 0.84931,2.05137 3.20408,2.73504 5.20123,3.07681 2.80932,0.60586 5.67434,0.96471 8.54832,1.03043 0.25083,1.45507 -2.06216,0.48052 -2.93005,0.6227 -1.96974,-0.17484 -3.92181,-0.50619 -5.85909,-0.8971 2.57789,1.91755 5.90807,2.09892 8.95501,2.68769 0.93678,0.29646 2.36138,-0.029 3.00138,0.5147 -0.43662,1.19197 -2.21742,0.13252 -3.21323,0.25218 -1.41174,-0.2011 -2.80639,-0.50382 -4.2132,-0.73433 1.15305,1.78331 3.26996,2.60515 5.22758,3.16829 1.05794,0.26287 2.14881,0.38914 3.23858,0.3886 0.37267,1.44355 -1.99559,0.55546 -2.80294,0.5085 -2.64158,-0.51268 -5.27971,-1.82548 -6.77476,-4.14083 -1.2762,-0.96763 -3.18641,-0.85498 -4.09435,-2.36782 -1.3026,-1.03845 -3.17177,-1.1698 -4.23074,-2.55643 -0.3945,-0.49006 -1.54853,-2.068 -0.46249,-2.3797 z" />
    </g>
  </g>
</svg>
