<?xml version="1.0" standalone="no"?>
<!DOCTYPE svg PUBLIC "-//W3C//DTD SVG 20010904//EN"
 "http://www.w3.org/TR/2001/REC-SVG-20010904/DTD/svg10.dtd">
<svg version="1.0" xmlns="http://www.w3.org/2000/svg"
 width="700.000000pt" height="700.000000pt" viewBox="0 0 700.000000 700.000000"
 preserveAspectRatio="xMidYMid meet">
<metadata>
Created by potrace 1.14, written by Peter Selinger 2001-2017
</metadata>
<g transform="translate(0.000000,700.000000) scale(0.100000,-0.100000)"
fill="#000000" stroke="none">
<path d="M2219 6996 c-2 -2 -35 -6 -74 -10 -333 -29 -688 -147 -985 -326 -454
-274 -801 -683 -993 -1171 -40 -101 -83 -231 -92 -278 -2 -9 -8 -34 -13 -56
-6 -22 -13 -56 -16 -75 -3 -19 -10 -62 -16 -95 -6 -33 -14 -91 -18 -130 -9
-89 -9 -2593 0 -2700 33 -379 172 -764 392 -1094 50 -75 103 -149 117 -166 15
-16 48 -55 74 -85 292 -336 679 -580 1140 -720 61 -18 179 -44 246 -54 25 -4
59 -9 75 -12 16 -3 67 -9 114 -14 114 -11 2564 -11 2660 1 41 4 95 11 120 13
180 21 429 92 625 178 312 137 611 358 842 620 146 166 293 402 396 638 29 66
99 272 112 330 20 88 34 157 41 200 3 19 7 46 10 60 16 93 19 303 19 1455 0
1106 -4 1429 -20 1455 -2 3 -6 27 -9 54 -4 27 -9 52 -11 55 -1 3 -6 23 -9 44
-9 55 -39 168 -71 262 -179 532 -543 986 -1031 1283 -258 158 -604 281 -889
317 -27 4 -61 9 -75 13 -27 6 -2654 15 -2661 8z m2574 -340 c441 -42 832 -208
1162 -492 98 -86 232 -228 295 -314 21 -30 43 -60 48 -66 5 -6 37 -56 70 -111
169 -279 268 -592 289 -911 9 -132 8 -2424 -1 -2538 -3 -50 -9 -102 -11 -115
-3 -13 -8 -44 -11 -69 -3 -25 -8 -52 -10 -60 -66 -288 -153 -498 -300 -724
-37 -55 -69 -103 -73 -106 -4 -3 -26 -30 -49 -60 -105 -134 -292 -303 -462
-417 -224 -150 -551 -277 -795 -309 -27 -3 -53 -8 -57 -10 -22 -13 -365 -18
-1403 -18 -1067 0 -1280 3 -1385 20 -450 70 -835 261 -1154 572 -243 237 -437
565 -531 893 -17 62 -20 73 -40 174 -38 195 -39 224 -39 1485 0 1044 4 1311
19 1410 2 14 6 43 10 65 38 256 159 562 314 795 198 299 496 558 823 713 87
42 295 120 352 132 260 55 235 51 371 61 55 3 101 7 102 8 6 5 2413 -3 2466
-8z"/>
<path d="M1868 5745 c-2 -1 -30 -5 -63 -8 -111 -12 -217 -55 -310 -128 -63
-49 -82 -69 -133 -144 -63 -94 -101 -210 -104 -317 -6 -290 162 -529 437 -620
128 -42 324 -29 445 30 232 113 367 336 356 588 -3 49 -9 105 -14 124 -5 19
-11 41 -13 49 -2 8 -18 44 -36 80 -87 178 -272 311 -468 337 -76 10 -94 11
-97 9z"/>
<path d="M3410 4139 c-96 -11 -161 -34 -272 -95 -15 -8 -53 -40 -86 -72 -343
-329 -215 -892 238 -1042 85 -28 231 -35 320 -15 452 103 641 650 346 1001
-104 123 -245 204 -384 219 -88 10 -107 11 -162 4z"/>
<path d="M5002 2538 c-305 -35 -545 -303 -544 -609 0 -241 116 -436 332 -557
30 -17 57 -31 60 -31 5 0 16 -3 70 -21 56 -19 216 -21 290 -4 36 8 103 33 149
55 136 67 254 201 306 348 50 143 40 327 -25 467 -48 102 -158 225 -242 268
-13 7 -32 17 -43 23 -98 54 -225 76 -353 61z"/>
</g>
</svg>
